<svg width="654" height="654" viewBox="0 0 654 654" fill="none" xmlns="http://www.w3.org/2000/svg">
<path fill-rule="evenodd" clip-rule="evenodd" d="M541.595 588.599H112.428C89.3293 588.599 72.272 565.807 80.9842 544.846C121.407 447.924 216.374 392.399 326.995 392.399C437.65 392.399 532.616 447.924 573.039 544.846C581.751 565.807 564.694 588.599 541.595 588.599ZM193.475 196.199C193.475 124.063 253.392 65.3995 326.995 65.3995C400.631 65.3995 460.515 124.063 460.515 196.199C460.515 268.336 400.631 326.999 326.995 326.999C253.392 326.999 193.475 268.336 193.475 196.199ZM652.55 576.696C628.283 466.857 552.377 385.793 452.471 349.006C505.411 307.248 536.288 239.721 524.939 165.787C511.787 80.0146 438.952 11.3788 351.029 1.37264C229.659 -12.4595 126.715 80.0818 126.715 196.199C126.715 258.002 155.956 313.068 201.553 349.006C101.613 385.793 25.7402 466.857 1.43958 576.696C-7.37274 616.623 25.4732 653.999 67.1649 653.999H586.825C628.55 653.999 661.396 616.623 652.55 576.696Z" fill="white"/>
</svg>
